<svg width="456" height="456" viewBox="0 0 456 456" fill="none" xmlns="http://www.w3.org/2000/svg">
<rect width="456" height="456" fill="#F5F6F7"/>
<g clip-path="url(#clip0_3128_21023)">
<path fill-rule="evenodd" clip-rule="evenodd" d="M271.2 206.384C272.587 207.296 273.914 208.364 275.112 209.505C282.376 216.473 285.547 227.182 282.407 237.468C277.962 252.033 262.553 260.235 247.99 255.79C244.834 254.828 241.986 253.356 239.5 251.494C235.659 256.386 231.034 260.633 225.811 264.043C230.554 268.187 236.229 271.42 242.626 273.372C266.899 280.778 292.58 267.106 299.988 242.834C304.929 226.642 300.489 209.821 289.779 198.219L290.959 195.046C294.825 184.642 292.974 177.179 288.123 173.272C283.322 169.406 274.748 168.389 262.991 173.413C261.904 173.877 260.828 174.347 259.767 174.822C240.189 184.175 224.835 196.554 213.019 215.086L213.002 215.111C211.535 217.66 212.411 220.915 214.957 222.386C216.755 223.425 218.913 223.295 220.541 222.235C220.661 222.153 220.778 222.065 220.894 221.977L230.623 214.506C238.909 208.143 245.907 203.388 253.471 202.146C256.781 201.602 259.884 201.768 264.083 203.05C266.668 203.838 269.051 204.972 271.2 206.384Z" fill="#E7E7E7"/>
<path fill-rule="evenodd" clip-rule="evenodd" d="M183.8 249.765C182.413 248.853 181.085 247.785 179.888 246.644C172.623 239.676 169.454 228.968 172.593 218.681C177.037 204.116 192.447 195.914 207.009 200.357C210.165 201.321 213.014 202.792 215.499 204.654C219.339 199.761 223.966 195.515 229.188 192.104C224.446 187.96 218.771 184.728 212.374 182.776C188.101 175.374 162.42 189.045 155.013 213.318C150.072 229.512 154.512 246.331 165.222 257.935L164.042 261.108C160.174 271.507 162.025 278.971 166.877 282.879C171.678 286.745 180.251 287.762 192.008 282.738C193.096 282.274 194.171 281.803 195.233 281.328C214.81 271.974 230.164 259.595 241.981 241.063L241.998 241.038C243.464 238.489 242.59 235.234 240.042 233.763C238.245 232.724 236.086 232.854 234.458 233.914C234.339 233.997 234.221 234.084 234.105 234.172L224.377 241.643C216.09 248.007 209.093 252.762 201.529 254.003C198.219 254.546 195.115 254.381 190.916 253.099C188.332 252.311 185.947 251.178 183.8 249.765Z" fill="#E7E7E7"/>
</g>
<defs>
<clipPath id="clip0_3128_21023">
<rect width="149" height="116.149" fill="white" transform="translate(153 170)"/>
</clipPath>
</defs>
</svg>
